<?xml version="1.0" encoding="UTF-8"?>
<svg id="_レイヤー_2" data-name="レイヤー_2" xmlns="http://www.w3.org/2000/svg" viewBox="0 0 393 253">
  <defs>
    <style>
      .cls-1 {
        fill: #254551;
      }

      .cls-2 {
        fill: #5f6a38;
      }

      .cls-3 {
        fill: #fcefca;
      }

      .cls-4 {
        fill: #c4321e;
      }
    </style>
  </defs>
  <g id="_レイヤー_1-2" data-name="レイヤー_1">
    <rect class="cls-3" width="393" height="253" rx="10" ry="10"/>
    <path class="cls-4" d="M10,0h373c5.52,0,10,4.48,10,10v45.36H0V10C0,4.48,4.48,0,10,0Z"/>
    <path class="cls-4" d="M0,197.64h393v45.36c0,5.52-4.48,10-10,10H10C4.48,253,0,248.52,0,243v-45.36H0Z"/>
    <rect class="cls-2" x="0" y="179.45" width="393" height="9.92"/>
    <rect class="cls-2" x="0" y="63.45" width="393" height="9.92"/>
    <g>
      <path class="cls-3" d="M138.37,220.31l.04.91c.64-.77,1.43-1.02,2.41-1.02s1.88.31,2.4,1.19c.46-.88,1.51-1.19,2.44-1.19s1.85.17,2.4.94c.35.49.41.99.41,1.57v5.86h-1.54v-5.48c0-1.13-.56-1.46-1.62-1.46-1.19,0-1.83.39-1.83,1.65v5.28h-1.54v-5.35c0-1.19-.39-1.6-1.6-1.6s-1.89.38-1.89,1.64v5.31h-1.53v-8.25h1.47Z"/>
      <path class="cls-3" d="M154.35,220.31l2.54,5.87,2.31-5.87h1.71l-3.47,8.26c-.32.79-.69,1.54-1.6,1.75-.42.1-.85.11-1.3.11-.38,0-.77-.01-1.16-.1v-1.36c.43.06.87.1,1.3.1.84,0,1.09-.18,1.37-.92l.08-.24-3.53-7.61h1.75Z"/>
      <path class="cls-3" d="M182.14,220.31l.04.91c.64-.77,1.43-1.02,2.41-1.02s1.88.31,2.4,1.19c.46-.88,1.51-1.19,2.44-1.19s1.85.17,2.4.94c.35.49.41.99.41,1.57v5.86h-1.54v-5.48c0-1.13-.56-1.46-1.62-1.46-1.19,0-1.84.39-1.84,1.65v5.28h-1.54v-5.35c0-1.19-.39-1.6-1.6-1.6s-1.89.38-1.89,1.64v5.31h-1.53v-8.25h1.47Z"/>
      <path class="cls-3" d="M202.66,228.56l-.06-.95c-.6.88-1.61,1.06-2.61,1.06-1.93,0-3.05-.73-3.05-2.77v-5.59h1.54v5.31c0,.7.1,1.18.8,1.46.38.17.77.2,1.19.2,1.41,0,2.11-.57,2.11-2.03v-4.93h1.54v8.25h-1.47Z"/>
      <path class="cls-3" d="M214.33,222.78c.01-.81-.28-1.22-1.91-1.22-1.21,0-2.16-.01-2.16,1.23,0,.5.17.7,1.01.79l2.86.28c1.43.14,2.03.91,2.03,2.31,0,.77-.29,1.61-.98,2.03-.71.43-1.85.48-2.66.48-1.04,0-2.7-.07-3.36-1-.38-.55-.45-1.23-.45-1.88h1.51c0,.91-.11,1.49,2.33,1.49.53,0,1.43-.01,1.83-.38.22-.21.25-.5.25-.8,0-.76-.35-.88-1.12-.97l-2.86-.31c-1.22-.13-1.83-.85-1.83-2.06,0-.94.36-1.81,1.25-2.23.59-.29,1.62-.35,2.3-.35.85,0,1.83.08,2.59.52.8.46.88,1.23.9,2.06h-1.53Z"/>
      <path class="cls-3" d="M222.07,224.91v.28c0,1.43.22,2.09,2.34,2.09,1.71,0,2.07-.21,2.14-1.43h1.57c-.14,2.33-1.5,2.83-3.6,2.83-1.02,0-2.34-.11-3.11-.84-.85-.81-.87-2.42-.87-3.53,0-1.36.17-3.04,1.53-3.71.69-.34,1.71-.39,2.46-.39,3.47,0,3.6,1.78,3.6,4.71h-6.06ZM226.54,223.67c-.04-1.44-.25-2.09-2.13-2.09s-2.27.52-2.34,2.09h4.47Z"/>
      <path class="cls-3" d="M238.36,228.56l-.06-.95c-.6.88-1.61,1.06-2.61,1.06-1.93,0-3.05-.73-3.05-2.77v-5.59h1.54v5.31c0,.7.1,1.18.8,1.46.38.17.77.2,1.19.2,1.41,0,2.11-.57,2.11-2.03v-4.93h1.54v8.25h-1.47Z"/>
      <path class="cls-3" d="M246.04,220.31l.04.91c.64-.77,1.43-1.02,2.41-1.02s1.88.31,2.4,1.19c.46-.88,1.51-1.19,2.44-1.19s1.85.17,2.4.94c.35.49.41.99.41,1.57v5.86h-1.54v-5.48c0-1.13-.56-1.46-1.62-1.46-1.19,0-1.83.39-1.83,1.65v5.28h-1.54v-5.35c0-1.19-.39-1.6-1.6-1.6s-1.89.38-1.89,1.64v5.31h-1.53v-8.25h1.47Z"/>
    </g>
    <g>
      <path class="cls-3" d="M113.74,22.15v9.53h5.92v1.51h-7.59v-11.04h1.67Z"/>
      <path class="cls-3" d="M125.67,22.15v1.62h-1.72v-1.62h1.72ZM125.58,24.94v8.25h-1.56v-8.25h1.56Z"/>
      <path class="cls-3" d="M136,27.41c.01-.81-.28-1.22-1.91-1.22-1.21,0-2.16-.01-2.16,1.23,0,.5.17.7,1.01.79l2.86.28c1.43.14,2.03.91,2.03,2.31,0,.77-.29,1.61-.98,2.03-.71.43-1.85.48-2.66.48-1.04,0-2.7-.07-3.36-1-.38-.55-.45-1.23-.45-1.88h1.51c0,.91-.11,1.49,2.33,1.49.53,0,1.43-.01,1.83-.38.22-.21.25-.5.25-.8,0-.76-.35-.88-1.12-.97l-2.86-.31c-1.22-.13-1.83-.85-1.83-2.06,0-.94.36-1.81,1.25-2.23.59-.29,1.62-.35,2.3-.35.85,0,1.83.08,2.59.52.8.46.88,1.23.9,2.06h-1.53Z"/>
      <path class="cls-3" d="M143.73,22.97h1.55v1.98h2.23v1.43h-2.23v4.29c0,.99.22,1.22,1.77,1.22.22,0,.45-.01.67-.03v1.42c-.32.04-.66.06-.98.06-.66,0-1.34-.04-1.97-.27-.34-.13-.6-.38-.79-.69-.21-.36-.25-.84-.25-1.26v-4.73h-1.82v-1.43h1.82v-1.98Z"/>
      <path class="cls-3" d="M162.36,29.06c0-1.39.03-3.22,1.51-3.89.73-.32,1.68-.34,2.46-.34,3.39,0,3.74,1.42,3.74,4.44,0,1.34-.1,3.07-1.51,3.7-.71.32-1.67.34-2.45.34-3.24,0-3.75-1.28-3.75-4.24ZM163.9,29.12c0,2.03.04,2.77,2.33,2.77.7,0,1.72-.01,2.07-.76.24-.5.24-1.67.24-2.25,0-2.04-.24-2.63-2.31-2.63-2.33,0-2.33.8-2.33,2.87Z"/>
      <path class="cls-3" d="M175.24,24.47c0-1.11.28-1.72.77-2.04.56-.36,1.33-.38,2.77-.38v1.42c-.2-.01-.39-.03-.67-.03-.74,0-1.33.1-1.33.95v.56h2v1.43h-2v6.82h-1.54v-6.82h-1.41v-1.43h1.41v-.48Z"/>
      <path class="cls-3" d="M195.21,24.94l.04.91c.64-.77,1.43-1.02,2.41-1.02s1.88.31,2.4,1.19c.46-.88,1.51-1.19,2.44-1.19s1.85.17,2.4.94c.35.49.41.99.41,1.57v5.86h-1.54v-5.48c0-1.13-.56-1.46-1.62-1.46-1.19,0-1.84.39-1.84,1.65v5.28h-1.54v-5.35c0-1.19-.39-1.6-1.6-1.6s-1.89.38-1.89,1.64v5.31h-1.53v-8.25h1.47Z"/>
      <path class="cls-3" d="M215.72,33.19l-.06-.95c-.6.88-1.61,1.06-2.61,1.06-1.93,0-3.05-.73-3.05-2.77v-5.59h1.54v5.31c0,.7.1,1.18.8,1.46.38.17.77.2,1.19.2,1.41,0,2.11-.57,2.11-2.03v-4.93h1.54v8.25h-1.47Z"/>
      <path class="cls-3" d="M227.4,27.41c.01-.81-.28-1.22-1.91-1.22-1.21,0-2.16-.01-2.16,1.23,0,.5.17.7,1.01.79l2.86.28c1.43.14,2.03.91,2.03,2.31,0,.77-.29,1.61-.98,2.03-.71.43-1.85.48-2.66.48-1.04,0-2.7-.07-3.36-1-.38-.55-.45-1.23-.45-1.88h1.51c0,.91-.11,1.49,2.33,1.49.53,0,1.43-.01,1.83-.38.22-.21.25-.5.25-.8,0-.76-.35-.88-1.12-.97l-2.86-.31c-1.22-.13-1.83-.85-1.83-2.06,0-.94.36-1.81,1.25-2.23.59-.29,1.62-.35,2.3-.35.85,0,1.83.08,2.59.52.8.46.88,1.23.9,2.06h-1.53Z"/>
      <path class="cls-3" d="M235.13,29.54v.28c0,1.43.22,2.09,2.34,2.09,1.71,0,2.07-.21,2.14-1.43h1.57c-.14,2.33-1.5,2.83-3.6,2.83-1.02,0-2.34-.11-3.11-.84-.85-.81-.87-2.42-.87-3.53,0-1.36.17-3.04,1.53-3.71.69-.34,1.71-.39,2.46-.39,3.47,0,3.6,1.78,3.6,4.71h-6.06ZM239.6,28.3c-.04-1.44-.25-2.09-2.13-2.09s-2.27.52-2.34,2.09h4.47Z"/>
      <path class="cls-3" d="M251.42,33.19l-.06-.95c-.6.88-1.61,1.06-2.61,1.06-1.93,0-3.05-.73-3.05-2.77v-5.59h1.54v5.31c0,.7.1,1.18.8,1.46.38.17.77.2,1.19.2,1.41,0,2.11-.57,2.11-2.03v-4.93h1.54v8.25h-1.47Z"/>
      <path class="cls-3" d="M259.1,24.94l.04.91c.64-.77,1.43-1.02,2.41-1.02s1.88.31,2.4,1.19c.46-.88,1.51-1.19,2.44-1.19s1.85.17,2.4.94c.35.49.41.99.41,1.57v5.86h-1.54v-5.48c0-1.13-.56-1.46-1.62-1.46-1.19,0-1.84.39-1.84,1.65v5.28h-1.54v-5.35c0-1.19-.39-1.6-1.6-1.6s-1.89.38-1.89,1.64v5.31h-1.53v-8.25h1.47Z"/>
      <path class="cls-3" d="M279.39,27.41c.01-.81-.28-1.22-1.91-1.22-1.21,0-2.16-.01-2.16,1.23,0,.5.17.7,1.01.79l2.86.28c1.43.14,2.03.91,2.03,2.31,0,.77-.29,1.61-.98,2.03-.71.43-1.85.48-2.66.48-1.04,0-2.7-.07-3.36-1-.38-.55-.45-1.23-.45-1.88h1.51c0,.91-.11,1.49,2.33,1.49.53,0,1.43-.01,1.83-.38.22-.21.25-.5.25-.8,0-.76-.35-.88-1.12-.97l-2.86-.31c-1.22-.13-1.83-.85-1.83-2.06,0-.94.36-1.81,1.25-2.23.59-.29,1.62-.35,2.3-.35.85,0,1.83.08,2.59.52.8.46.88,1.23.9,2.06h-1.53Z"/>
    </g>
    <g>
      <g>
        <path class="cls-1" d="M29.84,121.44h-5.62v-1.12h5.62v-15.71h6.72v15.71h1.12c.63,0,1.12-.49,1.12-1.12v-1.12h3.37v-4.5h10.12v-3.35h-12.37v-1.12h12.37v-4.5h6.75v4.5h5.59c.63,0,1.12-.52,1.12-1.12h-4.47v-1.12c0-.63-.52-1.12-1.12-1.12v-1.12h3.35c1.48,0,2.71.93,3.18,2.25h4.69c0,1.84-1.48,3.32-3.32,3.37h-9.02v3.35h3.35v-1.1h6.75v11.27c0,2.44-1.97,4.44-4.44,4.44h-.05v3.37c.63,0,1.12-.52,1.12-1.12v-1.12h5.62c0,1.86-1.51,3.37-3.37,3.37h-3.37v12.39c0,2.47-2.03,4.44-4.47,4.44h-12.37v-1.12h7.87c1.23,0,2.25-1.01,2.25-2.25v-13.46h-17.99v-1.12h17.99v-3.37h-15.74v-6.94c-.33.11-.71.19-1.12.19h-4.5v28.08h-6.72v-28.08ZM44.46,133.81h5.24v.05c2.25.25,4.33,2.08,4.74,4.39l1.01,5.65v.03h-6.72l-1.23-6.75c-.22-1.23-1.43-2.25-2.66-2.25h-.38v-1.12ZM52.3,120.32v-5.62h-3.37v5.62h3.37ZM52.3,127.06v-5.62h-3.37v5.62h3.37ZM62.39,120.32v-5.62h-3.35v5.62h3.35ZM60.17,127.06c1.23,0,2.22-1.01,2.22-2.25v-3.37h-3.35v5.62h1.12Z"/>
        <path class="cls-1" d="M89.37,131.56h-1.12c-.63,0-1.12.49-1.12,1.12h-6.75v-1.12c0-.63.49-1.12,1.12-1.12h7.87v-16.86h-1.65l-.6,10.12c-.03.63-.58,1.12-1.21,1.12h-5.54v-1.12c.63,0,1.15-.49,1.18-1.12l1.04-16.84h5.59l-.41,6.75h1.59v-7.87h6.72v7.87h1.12c.63,0,1.12-.55,1.12-1.12v-1.12h3.07l.14-2.63.19-2.99h5.62l-.08,1.12-.27,4.5h12.67v-1.12h6.75v35.92h-.05v.05c0,2.44-2,4.44-4.44,4.44h-6.77v-1.12h2.22c1.23,0,2.25-1.01,2.25-2.25v-34.8h-1.12l-.44,8.66-.52,9.51-.82,15.52c-.03.63-.52,1.12-1.07,1.12h-6.11v-1.12h1.21c.55,0,1.04-.49,1.07-1.12l.77-14.23.52-9.82.47-8.53h-1.01l-.08,1.92-.52,9.51-.82,15.52c-.03.63-.52,1.12-1.07,1.12h-6.11v-1.12h1.21c.55,0,1.04-.49,1.07-1.12l.77-14.23.52-9.79.11-1.81h-.66l-.74,12.34c-.03.63-.6,1.12-1.18,1.12h-5.57v-1.12c.63,0,1.18-.49,1.21-1.12l.55-9.05c-.19.03-.41.05-.63.05h-4.5v16.86h7.87v1.12h-7.87v17.96h-6.72v-17.96Z"/>
        <path class="cls-1" d="M136.53,119.19h.03c1.23,0,2.66-1.01,3.13-2.25l4.72-12.34h6.72l-.41,1.12h4.72c1.07,0,2.11,1.01,2.41,2.25l2.28,10.09h-5.7l-2-8.97c-.25-1.12-1.18-2.08-2.17-2.22l-2.99,7.81h4.99v5.62h1.12v-1.12h5.62v12.37c0,1.86-1.51,3.37-3.37,3.37h-7.87v10.09h5.02l-.55-4.47c-.14-1.23-1.12-2.25-2.22-2.25v-1.12h5.7c1.07,0,2.06,1.01,2.19,2.25l1.1,8.97h-5.81l-.27-2.25h-5.15c-1.21,0-2.22,1.01-2.22,2.25h-7.87v-1.12c0-1.23,1.01-2.25,2.25-2.25h1.12v-24.7h-4.5v-1.12ZM146.62,116.37l-.63,1.7c-.47,1.23-1.89,2.25-3.1,2.25h3.73v-3.95ZM153.37,121.44h-5.62v5.62h5.62v-5.62ZM152.24,133.81c.63,0,1.12-.49,1.12-1.12v-4.5h-5.62v5.62h4.5ZM162.36,121.47h-2.25v-11.24h8.83v-5.62h5.59v5.62h3.54v-1.12h5.62v8.99c0,1.86-1.51,3.37-3.37,3.37v4.47c0,1.86-1.51,3.37-3.37,3.37h-8.97v4.5h8.97v-1.29h5.62v12.53c0,1.86-1.51,3.37-3.37,3.37l-16.84-.03v-26.93ZM174.7,118.07v-1.12h3.37v-5.59h-12.34v6.72h8.97ZM173.6,128.19c.58,0,1.1-.49,1.1-1.12v-7.87h-6.72v8.99h5.62ZM175.82,147.27c.63,0,1.12-.49,1.12-1.12v-11.21h-8.97v12.34h7.84Z"/>
        <path class="cls-1" d="M193.48,127.09h35.97c1.21,0,2.19-.99,2.19-2.19v-1.18h6.75v.05c0,2.44,0,5.54-4.44,5.54h-40.47v-2.22Z"/>
        <path class="cls-1" d="M249.31,105.73h15.71c.63,0,1.12-.52,1.12-1.12v-1.12h5.62c0,1.86-1.51,3.37-3.37,3.37h-5.62v4.5h1.12v-1.12h6.75v3.43c0,2.44-1.97,4.41-4.44,4.41h-3.43v4.5h2.25c.63,0,1.12-.49,1.12-1.12v-1.12h5.62c0,1.86-1.51,3.37-3.37,3.37h-19.08v-17.96ZM250.43,148.39h3.26c1.23,0,3.1-1.01,4.14-2.25l3.73-4.5h-6.64v-16.84h25.83v-1.12h6.72v13.55c0,2.44-1.97,4.41-4.41,4.41h-2.3v4.5c0,1.23,1.01,2.25,2.25,2.25h2.25c1.23,0,2.22-1.01,2.22-2.25h.03v-1.12h6.75v.05c0,2.47-2,4.44-4.44,4.44h-11.35c-2.47,0-4.44-1.97-4.44-4.44v-3.43h-4.66l-4.69,5.62c-1.04,1.23-2.91,2.25-4.14,2.25h-10.09v-1.12ZM257.15,111.35v-4.5h-1.1v4.5h1.1ZM261.65,116.94c1.23,0,2.25-1.01,2.25-2.25v-2.22h-7.84v4.47h5.59ZM257.15,122.57v-4.5h-1.1v4.5h1.1ZM280.76,130.43v-4.5h-19.11v4.5h19.11ZM280.76,134.93v-3.37h-19.11v3.37h19.11ZM278.51,140.55c1.23,0,2.25-1.01,2.25-2.25v-2.25h-19.11v4.5h16.86ZM270.28,115.82c1.23,0,2.5-.99,2.8-2.25l2.33-8.97h6.72l-1.43,5.62h4.55c1.23,0,2.22-1.01,2.22-2.25v-1.12h6.75v.05c0,2.44-1.97,4.44-4.44,4.44h-9.38l-.88,3.35c-.3,1.23-1.56,2.25-2.8,2.25h-6.44v-1.12ZM274.01,119.19h10.12c1.23,0,2.22-1.01,2.22-2.25v-1.12h6.75v.05c0,2.47-1.97,4.44-4.44,4.44h-14.64v-1.12Z"/>
      </g>
      <g>
        <rect class="cls-1" x="313.72" y="115.44" width="5.06" height="22.12"/>
        <rect class="cls-1" x="322.15" y="115.44" width="9.1" height="22.12"/>
        <polygon class="cls-1" points="368.78 126.5 346.58 108.8 346.58 115.44 334.62 115.44 334.62 137.56 346.58 137.56 346.58 144.2 368.78 126.5"/>
      </g>
    </g>
  </g>
</svg>