<?xml version="1.0" encoding="UTF-8"?>
<svg id="_レイヤー_2" data-name="レイヤー_2" xmlns="http://www.w3.org/2000/svg" viewBox="0 0 393 253">
  <defs>
    <style>
      .cls-1 {
        fill: #254551;
      }

      .cls-2 {
        fill: #5f6a38;
      }

      .cls-3 {
        fill: #fcefca;
      }

      .cls-4 {
        fill: #c4321e;
      }
    </style>
  </defs>
  <g id="_レイヤー_1-2" data-name="レイヤー_1">
    <rect class="cls-3" width="393" height="253"/>
    <g>
      <path class="cls-1" d="M122.46,121.45h-5.62v-1.12h5.62v-15.7h6.71v15.7h1.12c.63,0,1.12-.49,1.12-1.12v-1.12h3.37v-4.49h10.11v-3.34h-12.35v-1.12h12.35v-4.49h6.74v4.49h5.59c.63,0,1.12-.52,1.12-1.12h-4.46v-1.12c0-.63-.52-1.12-1.12-1.12v-1.12h3.34c1.48,0,2.71.93,3.18,2.25h4.69c0,1.83-1.48,3.31-3.32,3.37h-9.01v3.34h3.34v-1.09h6.74v11.26c0,2.44-1.97,4.44-4.44,4.44h-.05v3.37c.63,0,1.12-.52,1.12-1.12v-1.12h5.62c0,1.86-1.51,3.37-3.37,3.37h-3.37v12.38c0,2.47-2.03,4.44-4.47,4.44h-12.35v-1.12h7.86c1.23,0,2.25-1.01,2.25-2.25v-13.45h-17.97v-1.12h17.97v-3.37h-15.72v-6.93c-.33.11-.71.19-1.12.19h-4.49v28.05h-6.71v-28.05ZM137.06,133.8h5.23v.05c2.25.25,4.33,2.08,4.74,4.38l1.01,5.64v.03h-6.71l-1.23-6.74c-.22-1.23-1.43-2.25-2.66-2.25h-.38v-1.12ZM144.9,120.32v-5.62h-3.37v5.62h3.37ZM144.9,127.06v-5.62h-3.37v5.62h3.37ZM154.98,120.32v-5.62h-3.34v5.62h3.34ZM152.76,127.06c1.23,0,2.22-1.01,2.22-2.25v-3.37h-3.34v5.62h1.12Z"/>
      <path class="cls-1" d="M181.93,131.55h-1.12c-.63,0-1.12.49-1.12,1.12h-6.74v-1.12c0-.63.49-1.12,1.12-1.12h7.86v-16.85h-1.64l-.6,10.11c-.03.63-.57,1.12-1.2,1.12h-5.53v-1.12c.63,0,1.15-.49,1.18-1.12l1.04-16.82h5.59l-.41,6.74h1.59v-7.86h6.71v7.86h1.12c.63,0,1.12-.55,1.12-1.12v-1.12h3.07l.14-2.63.19-2.99h5.62l-.08,1.12-.27,4.49h12.66v-1.12h6.74v35.89h-.05v.05c0,2.44-2,4.44-4.44,4.44h-6.77v-1.12h2.22c1.23,0,2.25-1.01,2.25-2.25v-34.76h-1.12l-.44,8.66-.52,9.51-.82,15.51c-.03.63-.52,1.12-1.07,1.12h-6.11v-1.12h1.21c.55,0,1.04-.49,1.07-1.12l.77-14.22.52-9.81.47-8.52h-1.01l-.08,1.92-.52,9.51-.82,15.51c-.03.63-.52,1.12-1.07,1.12h-6.11v-1.12h1.2c.55,0,1.04-.49,1.07-1.12l.77-14.22.52-9.78.11-1.81h-.66l-.74,12.33c-.03.63-.6,1.12-1.18,1.12h-5.56v-1.12c.63,0,1.18-.49,1.2-1.12l.55-9.04c-.19.03-.41.05-.63.05h-4.49v16.85h7.86v1.12h-7.86v17.94h-6.71v-17.94Z"/>
      <path class="cls-1" d="M229.03,119.2h.03c1.23,0,2.66-1.01,3.12-2.25l4.71-12.33h6.71l-.41,1.12h4.71c1.07,0,2.11,1.01,2.41,2.25l2.27,10.08h-5.7l-2-8.96c-.25-1.12-1.18-2.08-2.16-2.22l-2.99,7.81h4.99v5.62h1.12v-1.12h5.62v12.35c0,1.86-1.51,3.37-3.37,3.37h-7.86v10.08h5.01l-.55-4.46c-.14-1.23-1.12-2.25-2.22-2.25v-1.12h5.7c1.07,0,2.05,1.01,2.19,2.25l1.1,8.96h-5.81l-.27-2.25h-5.15c-1.21,0-2.22,1.01-2.22,2.25h-7.86v-1.12c0-1.23,1.01-2.25,2.25-2.25h1.12v-24.68h-4.49v-1.12ZM239.12,116.38l-.63,1.7c-.47,1.23-1.89,2.25-3.1,2.25h3.72v-3.94ZM245.86,121.45h-5.62v5.62h5.62v-5.62ZM244.73,133.8c.63,0,1.12-.49,1.12-1.12v-4.49h-5.62v5.62h4.49ZM254.84,121.47h-2.25v-11.23h8.82v-5.62h5.59v5.62h3.53v-1.12h5.62v8.99c0,1.86-1.51,3.37-3.37,3.37v4.47c0,1.86-1.51,3.37-3.37,3.37h-8.96v4.49h8.96v-1.29h5.62v12.52c0,1.86-1.51,3.37-3.37,3.37l-16.82-.03v-26.9ZM267.17,118.08v-1.12h3.37v-5.59h-12.33v6.71h8.96ZM266.07,128.19c.57,0,1.09-.49,1.09-1.12v-7.86h-6.71v8.99h5.62ZM268.29,147.25c.63,0,1.12-.49,1.12-1.12v-11.2h-8.96v12.33h7.84Z"/>
    </g>
    <rect class="cls-4" x="0" width="393" height="55.36"/>
    <rect class="cls-4" x="0" y="197.64" width="393" height="55.36"/>
    <rect class="cls-2" x="0" y="179.45" width="393" height="9.92"/>
    <rect class="cls-2" x="0" y="63.45" width="393" height="9.92"/>
    <g>
      <path class="cls-3" d="M138.37,220.31l.04.91c.64-.77,1.43-1.02,2.41-1.02s1.88.31,2.4,1.19c.46-.88,1.51-1.19,2.44-1.19s1.85.17,2.4.94c.35.49.41.99.41,1.57v5.86h-1.54v-5.48c0-1.13-.56-1.46-1.62-1.46-1.19,0-1.83.39-1.83,1.65v5.28h-1.54v-5.35c0-1.19-.39-1.6-1.6-1.6s-1.89.38-1.89,1.64v5.31h-1.53v-8.25h1.47Z"/>
      <path class="cls-3" d="M154.35,220.31l2.54,5.87,2.31-5.87h1.71l-3.47,8.26c-.32.79-.69,1.54-1.6,1.75-.42.1-.85.11-1.3.11-.38,0-.77-.01-1.16-.1v-1.36c.43.06.87.1,1.3.1.84,0,1.09-.18,1.37-.92l.08-.24-3.53-7.61h1.75Z"/>
      <path class="cls-3" d="M182.14,220.31l.04.91c.64-.77,1.43-1.02,2.41-1.02s1.88.31,2.4,1.19c.46-.88,1.51-1.19,2.44-1.19s1.85.17,2.4.94c.35.49.41.99.41,1.57v5.86h-1.54v-5.48c0-1.13-.56-1.46-1.62-1.46-1.19,0-1.84.39-1.84,1.65v5.28h-1.54v-5.35c0-1.19-.39-1.6-1.6-1.6s-1.89.38-1.89,1.64v5.31h-1.53v-8.25h1.47Z"/>
      <path class="cls-3" d="M202.66,228.56l-.06-.95c-.6.88-1.61,1.06-2.61,1.06-1.93,0-3.05-.73-3.05-2.77v-5.59h1.54v5.31c0,.7.1,1.18.8,1.46.38.17.77.2,1.19.2,1.41,0,2.11-.57,2.11-2.03v-4.93h1.54v8.25h-1.47Z"/>
      <path class="cls-3" d="M214.33,222.78c.01-.81-.28-1.22-1.91-1.22-1.21,0-2.16-.01-2.16,1.23,0,.5.17.7,1.01.79l2.86.28c1.43.14,2.03.91,2.03,2.31,0,.77-.29,1.61-.98,2.03-.71.43-1.85.48-2.66.48-1.04,0-2.7-.07-3.36-1-.38-.55-.45-1.23-.45-1.88h1.51c0,.91-.11,1.49,2.33,1.49.53,0,1.43-.01,1.83-.38.22-.21.25-.5.25-.8,0-.76-.35-.88-1.12-.97l-2.86-.31c-1.22-.13-1.83-.85-1.83-2.06,0-.94.36-1.81,1.25-2.23.59-.29,1.62-.35,2.3-.35.85,0,1.83.08,2.59.52.8.46.88,1.23.9,2.06h-1.53Z"/>
      <path class="cls-3" d="M222.07,224.91v.28c0,1.43.22,2.09,2.34,2.09,1.71,0,2.07-.21,2.14-1.43h1.57c-.14,2.33-1.5,2.83-3.6,2.83-1.02,0-2.34-.11-3.11-.84-.85-.81-.87-2.42-.87-3.53,0-1.36.17-3.04,1.53-3.71.69-.34,1.71-.39,2.46-.39,3.47,0,3.6,1.78,3.6,4.71h-6.06ZM226.54,223.67c-.04-1.44-.25-2.09-2.13-2.09s-2.27.52-2.34,2.09h4.47Z"/>
      <path class="cls-3" d="M238.36,228.56l-.06-.95c-.6.88-1.61,1.06-2.61,1.06-1.93,0-3.05-.73-3.05-2.77v-5.59h1.54v5.31c0,.7.1,1.18.8,1.46.38.17.77.2,1.19.2,1.41,0,2.11-.57,2.11-2.03v-4.93h1.54v8.25h-1.47Z"/>
      <path class="cls-3" d="M246.04,220.31l.04.91c.64-.77,1.43-1.02,2.41-1.02s1.88.31,2.4,1.19c.46-.88,1.51-1.19,2.44-1.19s1.85.17,2.4.94c.35.49.41.99.41,1.57v5.86h-1.54v-5.48c0-1.13-.56-1.46-1.62-1.46-1.19,0-1.83.39-1.83,1.65v5.28h-1.54v-5.35c0-1.19-.39-1.6-1.6-1.6s-1.89.38-1.89,1.64v5.31h-1.53v-8.25h1.47Z"/>
    </g>
    <g>
      <path class="cls-3" d="M113.74,22.15v9.53h5.92v1.51h-7.59v-11.04h1.67Z"/>
      <path class="cls-3" d="M125.67,22.15v1.62h-1.72v-1.62h1.72ZM125.58,24.94v8.25h-1.56v-8.25h1.56Z"/>
      <path class="cls-3" d="M136,27.41c.01-.81-.28-1.22-1.91-1.22-1.21,0-2.16-.01-2.16,1.23,0,.5.17.7,1.01.79l2.86.28c1.43.14,2.03.91,2.03,2.31,0,.77-.29,1.61-.98,2.03-.71.43-1.85.48-2.66.48-1.04,0-2.7-.07-3.36-1-.38-.55-.45-1.23-.45-1.88h1.51c0,.91-.11,1.49,2.33,1.49.53,0,1.43-.01,1.83-.38.22-.21.25-.5.25-.8,0-.76-.35-.88-1.12-.97l-2.86-.31c-1.22-.13-1.83-.85-1.83-2.06,0-.94.36-1.81,1.25-2.23.59-.29,1.62-.35,2.3-.35.85,0,1.83.08,2.59.52.8.46.88,1.23.9,2.06h-1.53Z"/>
      <path class="cls-3" d="M143.73,22.97h1.55v1.98h2.23v1.43h-2.23v4.29c0,.99.22,1.22,1.77,1.22.22,0,.45-.01.67-.03v1.42c-.32.04-.66.06-.98.06-.66,0-1.34-.04-1.97-.27-.34-.13-.6-.38-.79-.69-.21-.36-.25-.84-.25-1.26v-4.73h-1.82v-1.43h1.82v-1.98Z"/>
      <path class="cls-3" d="M162.36,29.06c0-1.39.03-3.22,1.51-3.89.73-.32,1.68-.34,2.46-.34,3.39,0,3.74,1.42,3.74,4.44,0,1.34-.1,3.07-1.51,3.7-.71.32-1.67.34-2.45.34-3.24,0-3.75-1.28-3.75-4.24ZM163.9,29.12c0,2.03.04,2.77,2.33,2.77.7,0,1.72-.01,2.07-.76.24-.5.24-1.67.24-2.25,0-2.04-.24-2.63-2.31-2.63-2.33,0-2.33.8-2.33,2.87Z"/>
      <path class="cls-3" d="M175.24,24.47c0-1.11.28-1.72.77-2.04.56-.36,1.33-.38,2.77-.38v1.42c-.2-.01-.39-.03-.67-.03-.74,0-1.33.1-1.33.95v.56h2v1.43h-2v6.82h-1.54v-6.82h-1.41v-1.43h1.41v-.48Z"/>
      <path class="cls-3" d="M195.21,24.94l.04.91c.64-.77,1.43-1.02,2.41-1.02s1.88.31,2.4,1.19c.46-.88,1.51-1.19,2.44-1.19s1.85.17,2.4.94c.35.49.41.99.41,1.57v5.86h-1.54v-5.48c0-1.13-.56-1.46-1.62-1.46-1.19,0-1.84.39-1.84,1.65v5.28h-1.54v-5.35c0-1.19-.39-1.6-1.6-1.6s-1.89.38-1.89,1.64v5.31h-1.53v-8.25h1.47Z"/>
      <path class="cls-3" d="M215.72,33.19l-.06-.95c-.6.88-1.61,1.06-2.61,1.06-1.93,0-3.05-.73-3.05-2.77v-5.59h1.54v5.31c0,.7.1,1.18.8,1.46.38.17.77.2,1.19.2,1.41,0,2.11-.57,2.11-2.03v-4.93h1.54v8.25h-1.47Z"/>
      <path class="cls-3" d="M227.4,27.41c.01-.81-.28-1.22-1.91-1.22-1.21,0-2.16-.01-2.16,1.23,0,.5.17.7,1.01.79l2.86.28c1.43.14,2.03.91,2.03,2.31,0,.77-.29,1.61-.98,2.03-.71.43-1.85.48-2.66.48-1.04,0-2.7-.07-3.36-1-.38-.55-.45-1.23-.45-1.88h1.51c0,.91-.11,1.49,2.33,1.49.53,0,1.43-.01,1.83-.38.22-.21.25-.5.25-.8,0-.76-.35-.88-1.12-.97l-2.86-.31c-1.22-.13-1.83-.85-1.83-2.06,0-.94.36-1.81,1.25-2.23.59-.29,1.62-.35,2.3-.35.85,0,1.83.08,2.59.52.8.46.88,1.23.9,2.06h-1.53Z"/>
      <path class="cls-3" d="M235.13,29.54v.28c0,1.43.22,2.09,2.34,2.09,1.71,0,2.07-.21,2.14-1.43h1.57c-.14,2.33-1.5,2.83-3.6,2.83-1.02,0-2.34-.11-3.11-.84-.85-.81-.87-2.42-.87-3.53,0-1.36.17-3.04,1.53-3.71.69-.34,1.71-.39,2.46-.39,3.47,0,3.6,1.78,3.6,4.71h-6.06ZM239.6,28.3c-.04-1.44-.25-2.09-2.13-2.09s-2.27.52-2.34,2.09h4.47Z"/>
      <path class="cls-3" d="M251.42,33.19l-.06-.95c-.6.88-1.61,1.06-2.61,1.06-1.93,0-3.05-.73-3.05-2.77v-5.59h1.54v5.31c0,.7.1,1.18.8,1.46.38.17.77.2,1.19.2,1.41,0,2.11-.57,2.11-2.03v-4.93h1.54v8.25h-1.47Z"/>
      <path class="cls-3" d="M259.1,24.94l.04.91c.64-.77,1.43-1.02,2.41-1.02s1.88.31,2.4,1.19c.46-.88,1.51-1.19,2.44-1.19s1.85.17,2.4.94c.35.49.41.99.41,1.57v5.86h-1.54v-5.48c0-1.13-.56-1.46-1.62-1.46-1.19,0-1.84.39-1.84,1.65v5.28h-1.54v-5.35c0-1.19-.39-1.6-1.6-1.6s-1.89.38-1.89,1.64v5.31h-1.53v-8.25h1.47Z"/>
      <path class="cls-3" d="M279.39,27.41c.01-.81-.28-1.22-1.91-1.22-1.21,0-2.16-.01-2.16,1.23,0,.5.17.7,1.01.79l2.86.28c1.43.14,2.03.91,2.03,2.31,0,.77-.29,1.61-.98,2.03-.71.43-1.85.48-2.66.48-1.04,0-2.7-.07-3.36-1-.38-.55-.45-1.23-.45-1.88h1.51c0,.91-.11,1.49,2.33,1.49.53,0,1.43-.01,1.83-.38.22-.21.25-.5.25-.8,0-.76-.35-.88-1.12-.97l-2.86-.31c-1.22-.13-1.83-.85-1.83-2.06,0-.94.36-1.81,1.25-2.23.59-.29,1.62-.35,2.3-.35.85,0,1.83.08,2.59.52.8.46.88,1.23.9,2.06h-1.53Z"/>
    </g>
  </g>
</svg>