<?xml version="1.0" encoding="UTF-8"?>
<svg id="_レイヤー_2" data-name="レイヤー_2" xmlns="http://www.w3.org/2000/svg" viewBox="0 0 393 191.48">
  <defs>
    <style>
      .cls-1 {
        stroke-width: 3px;
      }

      .cls-1, .cls-2, .cls-3, .cls-4 {
        fill: none;
        stroke: #fcefd6;
        stroke-miterlimit: 10;
      }

      .cls-2 {
        stroke-width: 4px;
      }

      .cls-5 {
        fill: #4faaa2;
      }

      .cls-6 {
        letter-spacing: .22em;
      }

      .cls-7 {
        font-family: PWanpakuGNpProN-Medium-83pv-RKSJ-H, 'A P-OTF WanpakuGN+ ProN';
        font-size: 11px;
        font-weight: 500;
      }

      .cls-7, .cls-8 {
        fill: #f4ab00;
      }

      .cls-4 {
        stroke-width: 2px;
      }

      .cls-9 {
        fill: #fcefd6;
      }
    </style>
  </defs>
  <g id="_レイヤー_1-2" data-name="レイヤー_1">
    <polygon class="cls-5" points="0 52.24 0 139.25 196.5 191.48 393 139.25 393 52.24 196.5 0 0 52.24"/>
    <g>
      <path class="cls-9" d="M66.97,97.43h1.21c1.23,0,2.6-.99,3.12-2.19l.47-1.18,3.34-8.22.82-2.08.38-.93.47-1.1h-6.44v7.83h-6.71v-8.96h17.94v-6.74h7.86v6.74h12.33v-1.12h6.74v5.64c0,2.44-1.97,4.44-4.41,4.47h-5.67v-1.12h1.15c1.21,0,2.22-1.01,2.22-2.22v-4.52h-6.74v12.38c0,1.21.99,2.19,2.22,2.19h1.29c1.18-.08,2.08-1.04,2.08-2.16v-1.18h6.74v.05c0,1.23-.44,2.27-1.31,3.12-.85.85-1.89,1.29-3.1,1.29h-10.22c-2.44,0-4.44-2-4.44-4.44v-11.29h-4.33l-1.62,3.97-3.4,8.38v.05c-1.01,2.44-3.81,4.44-6.25,4.44h-5.75v-1.12ZM64.75,116.49h16.82v-12.38h-12.36v-1.12h25.83c1.21,0,2.19-.99,2.22-2.19v-1.18h6.71v.05c0,2.44-1.97,4.44-4.41,4.44h-10.14v12.38h10.14c1.21,0,2.19-.99,2.19-2.19v-1.18h6.74v.05c0,2.44-2,4.44-4.44,4.44h-39.31v-1.12Z"/>
      <path class="cls-9" d="M125.05,99.32h7.31v6.57c0,2.58.11,2.9.52,4.47.27,1.07.58,1.67,1.21,2.47.9,1.15,2.33,1.84,4.19,1.84h6.14c2.55,0,3.18-.69,3.18-2.99v-.08h7.29v.08c0,2.85-1.23,4.16-3.12,4.16h-15.53c-4.41,0-4.77-.19-6.68-.85-1.23-.41-1.81-.96-2.66-1.92-1.21-1.31-1.84-3.72-1.84-6.52v-7.23ZM135.3,99.32h2.33c.99,0,1.59-.82,1.67-1.78v-.33c0-.38-.05-.77-.14-1.18-.14-.52-.27-1.1-.47-1.7h-11.59v-1.18h11.26l-2.58-9.07h-8.68v-1.15h8.35l-1.73-6.16h7.62l1.81,6.16h.33c2,0,3.26-.33,3.92-1.07.63-.74.82-1.56.82-2.96v-.08h7.42v.08c0,1.73-.66,3.01-1.59,3.75-.47.38-1.07.68-1.78.88-1.42.44-2.66.55-4.41.55h-4.36l2.68,9.07c1.78-.03,2.99-.36,3.59-1.12.6-.74.74-1.51.74-2.9v-.05h7.45v.05c0,1.75-.66,3.04-1.59,3.78-.47.38-1.07.69-1.78.88-1.42.44-2.66.55-4.41.55h-3.73c.08.47.14.96.14,1.45,0,.79-.14,1.59-.38,2.33v.03c-.74,1.4-2.22,2.33-3.86,2.33h-7.07v-1.15Z"/>
      <path class="cls-9" d="M172.91,80.61h17.94v-6.74h7.86v6.74h12.33v-1.12h6.74v5.64c0,2.47-1.97,4.44-4.44,4.44h-5.64v-1.12h1.12c1.23,0,2.22-1.01,2.22-2.25v-4.46h-31.39v7.83h-6.74v-8.96ZM185.24,117.62h6.74c1.23,0,2.25-1.01,2.25-2.25v-4.9l-4.33,3.81c-.71.6-1.78,1.1-2.41,1.1h-13.45v-1.12h6.88c.63,0,1.7-.49,2.41-1.12l9.01-7.84,1.89-1.67v-.99l-4.33,3.78c-.71.63-1.78,1.12-2.41,1.12h-13.45v-1.12h6.88c.6,0,1.7-.52,2.38-1.12l9.01-7.86,1.51-1.31c-.38-.55-1.07-.93-1.81-.93h-1.01l-2.25,2.25c-1.23,1.23-3.26,2.25-4.49,2.25h-9.1v-1.12h2.47c1.23-.05,3.18-1.01,4.38-2.25l7.89-7.86h-8.03v-1.12h17.97c1.23,0,2.25-1.01,2.25-2.25v-1.12h6.74v.05c0,2.47-2,4.44-4.44,4.44h-6.63l-5.64,5.62h4.41c2.08,0,3.81,1.42,4.27,3.34h3.62l.58,1.12.49.93c.88-.33,1.7-1.04,2.16-1.84l2.27-4.68h6.74l-2.77,5.64c-.6,1.23-2.08,2.22-3.29,2.22h-4.44l1.56,2.96.14.25,1.26,2.38,2.99,5.62c.66,1.23,2.19,2.25,3.43,2.25h1.12v1.12h-7.26c-1.23,0-2.77-1.01-3.43-2.25l-4.16-7.86-.85-1.62v10.66c0,2.47-2,4.44-4.44,4.44h-11.29v-1.12Z"/>
      <path class="cls-9" d="M228.69,96.18h35.94c1.21,0,2.19-.99,2.19-2.19v-1.18h6.74v.05c0,2.44,0,6.93-4.44,6.93h-40.43v-3.61Z"/>
      <path class="cls-9" d="M284.47,74.99h15.7c.63,0,1.12-.52,1.12-1.12v-1.12h5.62c0,1.86-1.51,3.37-3.37,3.37h-5.62v4.49h1.12v-1.12h6.74v3.42c0,2.44-1.97,4.41-4.44,4.41h-3.42v4.49h2.25c.63,0,1.12-.49,1.12-1.12v-1.12h5.62c0,1.86-1.51,3.37-3.37,3.37h-19.07v-17.94ZM285.59,117.62h3.26c1.23,0,3.1-1.01,4.14-2.25l3.72-4.49h-6.63v-16.82h25.81v-1.12h6.71v13.53c0,2.44-1.97,4.41-4.41,4.41h-2.3v4.49c0,1.23,1.01,2.25,2.25,2.25h2.25c1.23,0,2.22-1.01,2.22-2.25h.03v-1.12h6.74v.06c0,2.47-2,4.44-4.44,4.44h-11.34c-2.47,0-4.44-1.97-4.44-4.44v-3.43h-4.66l-4.68,5.62c-1.04,1.23-2.9,2.25-4.14,2.25h-10.08v-1.12ZM292.3,80.61v-4.49h-1.1v4.49h1.1ZM296.8,86.19c1.23,0,2.25-1.01,2.25-2.25v-2.22h-7.84v4.46h5.59ZM292.3,91.81v-4.49h-1.1v4.49h1.1ZM315.89,99.67v-4.49h-19.09v4.49h19.09ZM315.89,104.17v-3.37h-19.09v3.37h19.09ZM313.64,109.78c1.23,0,2.25-1.01,2.25-2.25v-2.25h-19.09v4.49h16.85ZM305.42,85.07c1.23,0,2.49-.99,2.79-2.25l2.33-8.96h6.71l-1.42,5.62h4.55c1.23,0,2.22-1.01,2.22-2.25v-1.12h6.74v.06c0,2.44-1.97,4.44-4.44,4.44h-9.37l-.88,3.34c-.3,1.23-1.56,2.25-2.79,2.25h-6.44v-1.12ZM309.15,88.44h10.11c1.23,0,2.22-1.01,2.22-2.25v-1.12h6.74v.05c0,2.47-1.97,4.44-4.44,4.44h-14.63v-1.12Z"/>
    </g>
    <line class="cls-3" x1="71.11" y1="52.24" x2="321.89" y2="52.24"/>
    <line class="cls-3" x1="71.11" y1="139.25" x2="321.89" y2="139.25"/>
    <polyline class="cls-4" points="346.76 84.75 355.51 100.07 347.21 114.6"/>
    <polyline class="cls-1" points="358.16 84.75 366.9 100.07 358.6 114.6"/>
    <polyline class="cls-2" points="369.69 84.75 378.44 100.07 370.14 114.6"/>
    <polyline class="cls-4" points="16.57 84.75 25.32 100.07 17.02 114.6"/>
    <polyline class="cls-1" points="27.97 84.75 36.72 100.07 28.42 114.6"/>
    <polyline class="cls-2" points="39.51 84.75 48.26 100.07 39.96 114.6"/>
    <polygon class="cls-3" points="196.5 10 7.07 59.31 7.07 92.93 7.07 132.17 196.5 181.48 385.93 132.17 385.93 59.31 196.5 10"/>
    <text class="cls-7" transform="translate(107.25 46.06)"><tspan class="cls-6" x="0" y="0">Lis</tspan><tspan x="23.97" y="0">t　</tspan><tspan class="cls-6" x="39.85" y="0">o</tspan><tspan x="49.2" y="0">f　</tspan><tspan class="cls-6" x="64.27" y="0">vacan</tspan><tspan x="111.02" y="0">t　</tspan><tspan class="cls-6" x="126.9" y="0">house</tspan><tspan x="173.65" y="0">s</tspan></text>
    <g>
      <path class="cls-8" d="M203.35,153.29c-.49-1.52-1.91-2.49-3.42-2.49-.47-1.44-1.82-2.49-3.42-2.49s-2.95,1.04-3.42,2.49c-1.52,0-2.93.97-3.42,2.49-.49,1.52.08,3.13,1.31,4.03-.47,1.44.01,3.09,1.31,4.03,1.29.94,3,.89,4.23,0,1.23.89,2.94.94,4.23,0,1.29-.94,1.78-2.58,1.31-4.03,1.23-.89,1.8-2.5,1.31-4.03Z"/>
      <circle class="cls-9" cx="196.5" cy="155.6" r="2.48"/>
    </g>
    <g>
      <path class="cls-9" d="M171.95,153.29c-.49-1.52-1.91-2.49-3.42-2.49-.47-1.44-1.82-2.49-3.42-2.49s-2.95,1.04-3.42,2.49c-1.52,0-2.93.97-3.42,2.49-.49,1.52.08,3.13,1.31,4.03-.47,1.44.01,3.09,1.31,4.03,1.29.94,3,.89,4.23,0,1.23.89,2.94.94,4.23,0,1.29-.94,1.78-2.58,1.31-4.03,1.23-.89,1.8-2.5,1.31-4.03Z"/>
      <circle class="cls-8" cx="165.1" cy="155.6" r="2.48"/>
    </g>
    <g>
      <path class="cls-9" d="M234.75,153.29c-.49-1.52-1.91-2.49-3.42-2.49-.47-1.44-1.82-2.49-3.42-2.49s-2.95,1.04-3.42,2.49c-1.52,0-2.93.97-3.42,2.49-.49,1.52.08,3.13,1.31,4.03-.47,1.44.01,3.09,1.31,4.03,1.29.94,3,.89,4.23,0,1.23.89,2.94.94,4.23,0,1.29-.94,1.78-2.58,1.31-4.03,1.23-.89,1.8-2.5,1.31-4.03Z"/>
      <circle class="cls-8" cx="227.9" cy="155.6" r="2.48"/>
    </g>
  </g>
</svg>